<?xml version="1.0" encoding="utf-8"?>
<!-- Generator: Adobe Illustrator 24.1.0, SVG Export Plug-In . SVG Version: 6.00 Build 0)  -->
<svg version="1.1" baseProfile="tiny" id="Capa_1" xmlns="http://www.w3.org/2000/svg" xmlns:xlink="http://www.w3.org/1999/xlink"
	 x="0px" y="0px" viewBox="0 0 1080 1080" xml:space="preserve">
<g id="Propuesta_C_Source_Sans_Pro">
</g>
<g id="Propuesta_C_Source_Serif_Pro">
</g>
<g id="PROPUESTA_C">
</g>
<g id="PROPUESTA_B">
	<path fill="#990000" d="M1036.596,335.39c-12.356-14.182-27.963-21.421-46.712-17.418c-18.175,3.86-27.849,16.953-32.946,34.347
		c-1.687,5.844-4.449,15.261-8.214,16.087c-26.246,5.691-52.972,12.905-79.302,12.104c-8.482-0.233-16.29-23.124-24.306-35.673
		c-2.796-4.3-5.255-8.739-8.076-13.004c-18.161-27.82-18.462-28.082,3.662-53.249c8.591-9.768,14.979-21.773,33.545-17.626
		c31.843,7.096,52.077-16.834,38.919-46.802c-6.507-14.82-19.685-29.373-33.644-37.662c-27.533-16.255-52.151,1.475-51.765,33.718
		c0.069,6.957-2.128,16.156-6.829,20.531c-9.991,9.367-21.867,17.003-33.951,23.604c-4.508,2.479-12.841,2.291-17.502-0.282
		c-55.585-30.294-55.516-30.487-36.994-90.58c1.089-3.503,2.296-6.928,3.053-10.476c3.058-14.162,10.218-20.887,26.058-23.386
		c32.239-5.028,45.856-31.457,33.827-59.722c-14.588-34.257-63.057-54.932-97.621-41.68c-25.529,9.798-38.77,35.762-23.376,57.812
		c15.721,22.446,7.724,38.206-2.801,56.688c-23.906,42.15-23.757,42.19-71.029,34.465c-5.735-0.96-11.633-2.924-17.27-2.331
		c-26.919,2.855-34.624-11.866-36.009-35.544c-0.955-16.537-5.057-30.408,13.42-43.12c19.6-13.509,13.771-44.911-10.1-52.71
		c-17.299-5.686-39.409-6.656-56.386-0.93c-30.531,10.337-32.224,40.601-7.536,61.572c6.062,5.112,10.644,14.776,11.346,22.753
		c1.148,12.138-0.787,24.786-3.271,36.836c-1.029,5.032-6.017,11.535-10.664,13.148c-62.057,20.907-62.127,20.744-97.29-35.024
		c-0.371-0.609-0.782-1.237-1.222-1.831c-9.12-11.792-11.089-21.981-2.652-37.147c18.754-33.787-0.782-66.16-39.265-66.961
		c-33.961-0.703-60.687,13.841-76.789,44.634c-14.385,27.582-1.752,58.693,28.898,61.597c24.376,2.301,31.516,15.097,37.34,33.812
		c3.439,11.104,6.839,22.367,11.604,32.921c4.463,9.996,4.904,17.824-0.307,24.618c1.46,10.708,2.296,24.846,2.494,29.398
		c0.04,0.98-22.377,19.744-16.988,29.072c1.544,2.672,6.032,1.41,9.659,2.202c-0.871,1.519-1.361,3.523-2.237,3.706
		c-4.018,0.856-3.682,4.087-4.3,6.858c-0.109,0.505-0.158,1.029-0.312,1.524c-2.91,9.318-2.697,18.299,2.42,26.959
		c1.628,2.766,2.682,5.908,3.756,8.966c0.906,2.558,2.014,4.364,5.191,4.028c0.841-0.094,2.108,0.624,2.633,1.361
		c2.494,3.523,5.443,2.751,8.877,1.628c4.805-1.574,9.491-4.666,14.924-2.202c2.717-2.43,5.463-4.835,8.13-7.319
		c0.425-0.396,0.445-1.198,0.737-1.776c2.212-4.424,1.534-10.916,8.892-11.599c5.216-0.48,10.1-3.573,15.632-1.9
		c1.45,0.435,3.028,0.45,5.522,0.792c-1.811,2.712-3.35,4.953-4.805,7.244c-1.376,2.177-3.137,3.815-2.009,7.254
		c0.678,2.073-1.786,5.181-3.063,8.402c-1.781-4.394-5.087-1.945-5.908-0.91l-5.146,5.626c-0.594,4.454-1.168,8.843-1.678,12.717
		c2.642,1.148,4.889,2.123,7.135,3.103c6.111-0.851,12.317-1.277,18.304-2.647c6.878-1.579,12.316,1.697,18.076,4.147
		c0.722,0.307,1.237,1.123,2.38,2.207c-0.737,0.985-1.173,1.183,0.005,1.435c-0.02,2.603,0.341,4.775-0.124,6.745
		c-1.371,5.795-3.306,11.465-4.513,17.29c-0.45,2.143,0.015,4.835,0.985,6.824c1.628,3.345,3.998,6.329,6.057,9.466
		c-0.228,0-0.46,0.005-0.688,0.005c1.336,1.336,2.657,2.722,2.86,2.939c1.544,1.648,2.667,4.171,5.488,1.742
		c0.124-0.104,0.554-0.005,0.732,0.134c5.156,3.959,8.902-0.124,12.895-2.331c7.378-4.082,19.897,0.975,22.466,9.051
		c0.193,0.599,0.574,1.425,1.034,2.355c0.44-0.529,0.777-1.084,0.985-1.692c1.672-4.894,5.943-6.225,9.115-9.07
		c0.906-0.816,1.762-2.281,1.742-3.429c-0.104-5.785,4.058-9.451,9.531-10.565c6.804-1.386,14.241-1.989,19.313-8.016
		c2.657-3.152,5.255-2.291,7.556,0.673c-2.939,2.063-5.81,4.082-8.679,6.101c0.005-0.01,0.015-0.025,0.02-0.035l-0.084,0.079
		c0.02-0.005,0.03-0.01,0.049-0.015c0.851-0.218,1.702-0.44,2.796-0.727c0.747,1.222,1.534,2.504,2.588,4.231
		c4.647-2.687,11.168-2.672,12.277-10.382c1.866,5.829,6.779,6.265,11.203,7.625c1.163,0.361,2.613,1.519,2.925,2.603
		c0.876,2.994,2.712,3.296,5.339,2.924c6.359-0.901,12.346-0.638,18.418,2.613c2.524,1.351,6.814-0.574,10.288-1.108
		c0.099-0.015,0.02-1.168,0.025-1.87l14.588,0.114c0.059,0.302,0.044,0.237,0.104,0.539c-1.618,0.633-3.231,1.267-5.146,2.019
		c1.776,2.776,3.34,4.795,7.239,4.394c2.113-0.218,4.978,1.079,6.502,2.657c1.46,1.514,1.623,4.27,2.504,6.938
		c-0.302-0.193-0.104-0.005,0.129,0.069c1.945,0.614,3.894,1.207,5.849,1.806c-0.336,0.445-0.663,0.901-0.99,1.351
		c3.34-0.109,8.996-0.228,9.595,0.178c0.851,0.579,15.716,3.845,17.423,4.716c1.712,0.871,1.425,0.584,7.982,4.355
		c4.676,2.687,10.189,9.456,12.965,13.118c0.094-0.203,0.173-0.421,0.247-0.638c5.701,3.85,12.346,5.463,15.785,11.653
		c0.297,0.525,1.678,0.351,2.38,0.782c0.93,0.569,2.157,1.267,2.444,2.162c0.901,2.835,1.638,5.765,2.039,8.709
		c0.673,4.884,2.069,9.105,7.116,10.194c1.252,5.315-1.851,8.001-5.062,10.644c-0.896,0.742-1.707,1.593-2.563,2.39
		c-2.42,2.261-3.89,4.686-1.44,7.611c1.385-0.312,2.746-0.619,4.562-1.029c0.93-4.617,4.132-5.161,8.555-3.617
		c2.38,0.831,4.983,1.044,7.972,1.623c-1.203,3.211-2.232,5.958-3.315,8.838c1.281,0.752,2.509,1.47,3.073,1.806
		c0.822-2.816,1.549-5.285,2.271-7.774c8.486,0.579,14.82,4.478,21.679,9.001c0,0,0.782-0.525,1.658-1.128
		c4.206,4.676-0.267,9.506,0.391,14.805c2.162-1.677,4.097-2.934,5.715-4.508c2.271-2.212,4.587-2.905,7.091-0.718
		c3.439,3.004,7.541,3.296,11.703,2.969c9.031-0.698,14.622,4.686,19.848,10.817c0.757,0.891,1.46,1.851,2.004,2.875
		c2.212,4.171,5.384,6.68,10.317,6.982c3.785,0.233,5.646,2.618,5.864,6.453c0.228,4.132,1.004,8.254,0.955,12.371
		c-0.069,5.874-2.509,10.906-6.091,15.612c-6.21,8.165-12.005,16.641-18.111,24.885c-1.247,1.677-2.504,4.607-5.874,1.712
		c-2.271,10.298-4.513,20.387-6.74,30.482c-1.054,4.79-1.593,9.783-5.547,13.385c-0.361,0.327-0.668,0.866-0.732,1.346
		c-1.242,8.778-7.502,14.568-12.455,21.154c-0.876,1.163-1.089,2.806-1.791,4.122c-0.599,1.153-1.321,2.311-2.242,3.202
		c-1.871,1.796-3.687,3.924-5.958,4.938c-1.851,0.821-4.33,0.242-6.537,0.242c-0.767,0.005-1.549-0.208-2.311-0.134
		c-0.856,0.079-1.9,0.797-2.504,0.5c-3.573-1.752-5.938,0.262-8.244,2.425c-2.276,2.123-5.013,2.529-7.932,3.301
		c-4.191,1.104-8.016,3.83-11.787,6.195c-2.162,1.356-4.231,3.132-5.77,5.151c-2.316,3.053-4.612,5.819-4.157,10.604
		c0.544,5.631-1.499,11.465-6.997,14.563c-4.078,2.296-6.487,5.983-9.115,9.476c0,0,0,0.005-0.005,0.005l-10.53,9.917l-9.58,9.016
		c-3.696,4.449-7.898,9.154-12.915,11.634c-4.82,2.38-10.951,3.078-16.632,0.955c-1.212-0.45-2.375-1.039-3.597-1.445
		c-3.563-1.188-5.646-3.192-3.894-7.581c-4.137,4.251-4.102,5.102-0.03,8.427c1.395,1.138,2.761,2.306,4.191,3.508
		c-0.732,1.653-1.356,3.053-2.063,4.642c0.782,0.688,1.999,1.247,2.197,2.054c0.455,1.851,1.301,4.612,0.416,5.611
		c-2.756,3.088-5.869,6.299-9.521,8.066c-8.417,4.068-17.497,5.171-27.117,3.553c-0.97,3.677-1.87,7.566-3.088,11.347
		c-0.317,0.97-1.519,1.984-2.544,2.346c-4.622,1.648-9.13,1.178-14.528-2.42c-0.03,3.974-0.539,7.037,0.208,9.743
		c0.243,0.871,3.82,0.816,6.285,1.257c0.678,1.89,0.678,1.89-6.68,2.732c0.955,0.302,1.91,0.609,2.86,0.915
		c-0.163,0.411-0.332,0.817-0.495,1.222c-4.859,1.89-7.536,5.329-8.387,10.302c-0.124,0.747-1.613,1.445-2.603,1.821
		c-1.569,0.599-3.553,0.495-4.8,1.43c-1.969,1.47-4.973,3.731-4.785,5.339c0.228,2.054,3.152,3.84,5.018,5.646
		c0.906,0.876,2.959,1.663,2.88,2.271c-0.218,1.579-0.975,3.454-2.157,4.449c-1.851,1.564-4.236,2.489-6.383,3.706
		c-0.787,0.45-1.707,0.812-2.276,1.47c-3.464,4.013-6.848,8.096-10.441,12.381c0.841,1.4,2.014,3.36,3.716,6.2
		c-4.305-0.643-7.685-1.148-11.07-1.653c1.069,0.579,2.143,1.163,2.479,1.346c-2.445,2.36-5.057,4.884-8.239,7.957
		c-0.559-0.287-2.039-1.039-3.048-1.559c1.331-1.361,2.449-2.509,3.568-3.652c-0.317-0.099-0.628-0.198-0.95-0.292
		c0.069-0.044,0.134-0.089,0.203-0.129c-0.183-0.015-0.356-0.03-0.529-0.049c-0.104-0.005-0.208-0.015-0.312-0.025
		c0.109,0.035,0.223,0.069,0.332,0.104c0.02,0.094,0.03,0.119,0.059,0.252c-1.841,1.153-3.207,2.009-4.612,2.89
		c-4.815-1.668-4.953-6.111-5.661-10.124c-0.599-3.429-0.891-6.918-1.43-11.282c1.717,0.782,2.959,1.351,4.201,1.925
		c-0.064-0.871-0.138-1.737-0.203-2.608c-1.391-0.277-2.786-0.554-4.448-0.886c0.322-0.965,0.633-1.88,0.92-2.746
		c-1.484-0.891-2.781-1.663-4.072-2.435c0.267-0.386,0.544-0.782,0.812-1.173c0.94,0.619,1.87,1.242,3.365,2.227
		c-0.064-1.232-0.094-1.866-0.104-2.044c1.297-0.658,2.494-1.267,3.687-1.87c-1.247-0.727-2.494-1.455-3.993-2.331
		c1.109-2.247,1.697-4.711-2.751-4.602c-0.138,0-0.455-1.633-0.44-2.504c0.02-1.054,0.302-2.098,0.524-3.479
		c1.905,0.94,4.142,2.039,7.017,3.459c0.312-2.227,0.54-4.528,0.965-6.794c0.322-1.702,1.267-3.355,1.267-5.032
		c-0.005-2.247,2.563-3.578,1.331-6.571c-0.737-1.796,1.524-4.82,2.435-7.294c0.341,0.129,0.678,0.262,1.019,0.391
		c-0.534-1.519-1.069-3.048-1.94-5.522c-1.079-0.782-4.637,2.41-5.676-1.534c-0.327-1.217-0.881-2.989-0.312-3.741
		c4.557-6.077,3.899-12.519,1.875-19.175c-0.683-2.261-0.752-4.305,2.192-5.211c0.683-0.208,1.188-1.301,1.589-2.078
		c0.831-1.613,1.395-3.375,2.316-4.929c6.591-11.159,9.342-23.158,8.095-36.069c-0.069-0.767-0.223-1.682,0.089-2.316
		c4.562-9.258,2.385-20.125,7.329-29.398c3.325-6.22,3.939-13.103,3.409-20.358c-0.366-5.067,1.316-10.451,2.865-15.459
		c2.627-8.496,1.227-16.993,0.807-25.494c-0.069-1.341-0.074-2.355,0.366-3.216c-7.175-5.953-17.433-13.257-21.738-15.825
		c-6.962-4.152-15.122-6.492-20.481-13.113c-2.692-3.325-6.285-6.324-4.335-11.559c0.312-0.841-0.668-2.44-1.43-3.375
		c-8.348-10.159-13.593-21.971-18.556-33.995c-3.647-8.833-8.511-16.904-17.265-21.802c-0.653-0.366-1.183-0.955-0.653-1.677
		c-0.099-2.177,0.218-4.468-0.366-6.497c-2.335-8.125-2.435-8.095,5.186-12.227c0.475,0.628,0.97,1.287,1.282,1.702
		c1.316-3.894,2.662-7.893,4.013-11.891c-0.673-0.153-1.341-0.312-2.014-0.465c-0.247,1.569-0.495,3.132-0.737,4.656
		c-1.727-1.267-3.607-2.509-5.31-3.959c-0.708-0.599-1.504-1.697-1.435-2.499c0.381-4.127-2.559-9.357,3.627-11.678
		c-1.009-4.562,6.859-6.621,2.578-12.178c2.227-0.599,3.785-1.099,5.384-1.43c2.37-0.495,3.637-1.173,4.354-4.186
		c0.599-2.519,4.097-4.34,3.924-7.818c0-0.163,0.886-0.475,1.381-0.534c5.196-0.569,7.066-4.849,9.258-8.58
		c0.48-0.807-0.094-3.093-0.901-3.637c-2.014-1.371-2.142-2.92-1.786-5.013c0.53-3.063,0.445-6.275,1.306-9.229
		c1.391-4.76-1.148-8.056-3.325-11.549c-2.553-2.237-5.458-5.483-3.33-8.244c-2.271-1.93-4.379-3.726-6.824-5.809
		c-3.439,1.851-7.017,3.776-10.797,5.809c1.138,2.103,2.049,3.776,2.939,5.414c-4.236,4.8-6.086,4.384-8.501-1.955
		c-1.034,0.307-2.093,0.614-3.395,1c-1.42-5.577-6.314-3.944-10.243-5.013c-0.475-0.129-0.911-0.282-1.297-0.46
		c-0.025,0.272-0.05,0.539-0.069,0.812c-1.336-0.386-2.82-0.816-4.602-1.326c0.628-6.873-6.349-7.982-9.263-11.851
		c-1.227,1.084-2.271,2.014-3.315,2.944c-1.272-1.43-3.627-2.87-3.622-4.295c0.04-5.849-2.044-10.218-6.73-13.702
		c-2.647-1.964-4.85-4.538-7.725-7.289l-8.189-2.994c-7.799-1.826-16.087-2.494-22.876-7.586l-3.667-2.954
		c-3.934-2.999-7.635-6.027-11.574-8.699c-1.296-0.881-3.508-1.598-4.805-1.099c-10.253,3.939-19.952,2.553-29.566-2.138
		c-3.365-1.643-7.16-2.395-10.545-3.993c-2.969-1.4-5.562-3.588-8.481-5.117c-2.454-1.287-5.057-2.568-7.739-3.058
		c-3.157-0.574-5.532-1.826-7.408-4.404c-1.366-1.88-2.796-3.845-4.597-5.275c-3.855-3.083-4.36-6.853-1.697-10.461
		c4.528-6.141,0.604-11.04-1.9-15.973c-1.672-3.301-5.215-5.725-6.586-9.085c-1.549-3.795-4.142-5.953-7.69-7.779
		c0.945-1.628,1.702-2.934,2.435-4.191c-1.168-3.884-7.823-4.874-5.641-9.486c-2.643-3.098-4.854-5.701-6.819-8.001
		c0.386-4.523,0.337,1.074,0.322-3.385c-0.005-1.099-2.232-0.396-3.488-1.287c-0.01-0.01-1.96-1.143-1.975-1.153
		c-2.019-1.41-1.672-0.688-2.469,1.648l-0.435,1.287l3.449,9.936c0.173,0.742,0.104,1.677,0.534,2.207
		c4.394,5.443,3.865,11.846,3.642,18.19c-0.064,2.014-0.124,3.949,2.356,4.686c2.781,0.831,3.093,3.251,2.578,5.354
		c-0.376,1.524-2.024,2.736-2.519,3.36c-3.038-3.588-5.394-6.799-8.209-9.545c-2.044-1.989-2.904-3.766-1.618-6.443
		c1.9-3.944,1.287-7.512-2.162-10.703c-0.851,0.346-1.875,0.762-3.043,1.242c-1.578-1.92-3.043-3.687-5.047-6.111
		c4.79,0.95,4.775-2.939,6.413-4.948c0.376-0.465-0.213-2.321-0.891-2.949c-6.299-5.824-4.26-12.999-3.602-19.892
		c-5.399-5.943-8.368-13.717-6.507-25.919c2.726-18.136-16.359-30.437-36.088-27.914c-21.53,2.816-42.284,21.095-46.331,46.396
		c-1.95,12.222,0.421,29.408,8.041,37.642c6.438,6.967,23.322,4.335,35.628,5.804c5.869,0.752,13.652-1.094,17.393,2.054
		c11.055,9.333,21.387,19.848,30.215,31.269c3.607,4.602,5.384,13.831,3.335,19.135c-21.402,55.733-21.674,55.61-80.139,51.097
		c-2.9-0.208-5.775-0.272-8.689-0.371c-15.508-0.5-26.152-4.196-31.932-22.342c-10.174-31.853-39.889-40.626-66.155-22.743
		c-30.121,20.442-41.69,70.628-23.475,101.941c13.727,23.564,41.477,32.338,61.038,13.974c20.08-18.967,37.776-15.577,58.594-6.413
		c10.634,4.701,22.485,7.294,32.164,13.326c5.968,3.736,12.351,12.039,12.712,18.65c1.534,25.326,0.732,50.765,0.841,78.951
		c-8.526,3.137-17.448,6.245-26.192,9.714c-17.225,6.814-32.016,11.134-49.167-4.874c-16.74-15.558-42.269-6.477-47.539,17.354
		c-3.785,16.953-1.43,37.825,5.522,53.769c4.592,10.629,21.99,21.263,33.827,21.466c10.05,0.203,20.387-14.598,30.601-22.683
		c5.646-4.458,10.802-11.208,17.166-12.628c12.663-2.826,25.984-3.597,39.047-3.355c5.305,0.079,12.871,3.568,15.459,7.912
		c31.749,52.66,30.64,58.712-15.488,100.417c-2.143,1.965-4.562,3.632-6.487,5.804c-9.194,10.317-18.146,12.039-32.283,6.611
		c-32.56-12.638-59.831,6.66-60.672,40.294c-0.866,33.852,26.137,69.767,58.836,78.263c29.863,7.744,57.341-10.525,54.798-41.047
		c-1.846-22.258,7.428-31.625,24.173-39.77c8.467-4.127,17.126-8.368,24.608-14.048c19.145-14.702,34.559-12.356,49.964,6.364
		c7.665,9.333,20.026,14.647,28.582,23.445c6.74,6.873,17.235,18.927,15.092,24.108c-7.655,18.373-4.097,45.045-33.629,50.033
		c-29.641,4.973-41.126,32.946-20.862,55.021c11.757,12.836,30.408,23.47,47.47,26.38c30.967,5.379,46.371-18.908,36.252-48.702
		c-2.905-8.605-0.955-20.471,2.727-29.215c4.092-9.724,11.777-18.482,19.541-25.939c4.384-4.167,12.663-7.65,18.245-6.552
		c61.79,12.396,62.013,12.96,64.606,75.858c0.044,1.46-0.054,2.944,0.193,4.359c2.276,15.81-2.049,25.974-17.695,34.792
		c-29.195,16.468-30.477,48.078-5.433,71.014c23.782,21.797,68.07,24.435,95.85,5.715c26.241-17.666,30.892-48.341,6.314-67.872
		c-18.967-15.073-20.471-30.611-15.434-50.78c2.638-10.575,4.919-21.327,6.042-32.135c1.658-15.454,8.709-22.193,24.984-23.564
		c19.442-1.643,38.854-6.101,57.703-11.238c40.611-11.07,40.666-11.688,60.395,26.83c4.939,9.664,12.673,17.73,3.781,31.526
		c-18.769,29.072-1.945,57.376,32.644,54.625c14.89-1.158,31.734-7.932,42.823-17.695c8.758-7.69,15.063-24.757,13.064-35.975
		c-1.752-9.625-16.617-17.082-26.078-25.054c-5.047-4.315-14.162-6.636-15.79-11.708c-6.344-20.07-15.028-41.106-13.578-61.167
		c0.737-10.768,20.303-20.189,31.338-30.229c1.128-0.98,2.365-1.762,3.38-2.751c44.862-41.952,44.644-41.626,97.7-11.822
		c13.667,7.734,21.07,15.765,21.239,33.391c0.232,32.199,27.424,49.776,57.708,40.344c33.476-10.461,59.103-51.344,53.769-85.814
		c-4.355-28.156-27.627-45.263-53.526-34.282c-23.421,9.946-38.345,1.856-53.897-12.796c-6.878-6.487-13.672-13.455-21.733-18.17
		c-16.899-9.946-17.522-21.976-9.362-38.34c6.458-12.915,9.669-27.394,15.038-40.908c3.82-9.669,0.129-27.018,18.062-24.247
		c19.59,3.043,43.743-11.663,58,15.226c12.712,24.014,36.954,26.523,55.852,7.363c15.365-15.558,19.902-46.604,9.956-67.525
		c-11.089-23.233-35.91-29.7-53.571-11.149c-11.312,11.886-21.402,12.193-34.604,8.046c-9.724-3.023-20.061-4.488-29.235-8.694
		c-4.854-2.281-10.179-8.506-11.02-13.593c-10.58-63.161-10.347-63.245,49.647-88.204c2.049-0.841,4.107-1.613,6.047-2.642
		c12.772-6.745,22.659-5.938,34.856,4.81c27.176,23.945,61.672,12.311,71.405-22.599
		C1064.193,384.809,1056.538,358.385,1036.596,335.39z M478.758,336.424c-0.059-0.614-0.193-0.925-0.089-1.084
		c0.821-1.301,1.687-2.573,2.533-3.855c-1.593-0.529-3.281-0.881-4.75-1.648c-1.613-0.836-3.38-1.776-4.434-3.167
		c-1.766-2.311-3.657-3.632-6.665-4.038c-5.646-0.762-11.228-2.034-16.82-3.182c-1.212-0.247-2.35-0.871-3.751-1.415
		c0.955-0.767,1.564-1.252,2.647-2.123c-4.285-0.653-7.63-0.693-10.951,1.559c-3.197,2.162-6.255,5.27-10.951,3.86
		c0.985-0.718,2.42-1.207,2.692-2.059c1.499-4.78,5.453-4.869,9.318-5.295c6.774-0.732,13.464-3.578,20.357-1.287
		c3.771,1.252,7.418,2.954,11.025,4.661c7.096,3.35,13.326,8.719,21.649,9.199c0.376,0.02,1,0.124,1.079,0.341
		c2.039,5.74,8.224,3.889,12.346,6.73C495.691,338.126,487.036,335.394,478.758,336.424z M544.957,349.077
		c-0.945,0.213-2.044-0.203-3.068-0.351c-5.918-0.841-12.257-3.424-15.874,4.696l-3.573-3.87
		c-6.552-2.697-13.653,3.528-19.383-3.419l13.385,0.099c-0.713-2.276-1.356-4.345-2.217-7.096c-0.421-0.183-1.544-0.668-2.657-1.163
		c-0.03-0.322-0.05-0.648-0.079-0.975c1.875-0.381,3.776-1.173,5.621-1.069c5.701,0.317,11.376,0.965,17.062,1.509
		c1.757,0.168,5.537,3.335,6.898,5.151c0.609,0.807,2.004,1.054,3.063,1.499c1.539,0.653,3.103,1.247,4.651,1.866
		c0.163,0.485,0.322,0.965,0.485,1.445C547.837,347.978,546.447,348.745,544.957,349.077z M559.946,351.487
		c-0.752,0.074-1.643-1.282-2.469-1.979c0.208-0.317,0.416-0.628,0.623-0.94c3.662,0.03,7.324,0.054,11.5,0.089
		C567.155,353.421,563.117,351.18,559.946,351.487z M497.73,820.284c0.371-1.772,0.752-3.602,1.529-5.206
		c0.46-0.95,1.702-1.524,2.593-2.266c0.46,0.92,1.015,1.811,1.336,2.781c0.198,0.584,0.03,1.287,0.025,1.93
		c0.282,0.183,0.569,0.361,0.851,0.544c-1.054,1.643-1.762,3.88-3.261,4.765C498.987,823.916,497.161,822.986,497.73,820.284z
		 M526.287,891.184c-0.817-0.005-1.623-1.222-2.44-1.88c-0.97,0.515-1.965,1.499-2.905,1.455c-3.691-0.183-7.368-0.698-11.05-1.079
		c-0.025-0.336-0.049-0.668-0.064-1c1.598-0.168,3.192-0.332,4.805-0.495c-0.059-0.831-0.173-2.341-0.282-3.855
		c0.351-0.015,0.693-0.035,1.044-0.049c0.881,1.465,1.762,2.929,2.642,4.394c0.594-0.124,1.193-0.252,1.787-0.376
		c-4.018-2.192-0.703-3.187-0.292-4.068c-1.351-1.292-2.454-2.341-3.558-3.395c2.113-0.851,4.172-1.895,6.349-2.499
		c2.415-0.673,2.811,1.019,2.717,2.934c0.257-0.025,0.693-0.143,0.742-0.054c2.776,5.077,8.283,5.621,12.816,7.774
		c0.188,0.094,0.267,0.421,1.049,1.752C534.793,890.942,530.538,891.219,526.287,891.184z"/>
</g>
<g id="PROPUESTA_A">
</g>
</svg>
